/* XPM */
static char * font_gods_xpm[] = {
"624 16 9 1",
"  c None",
". c #222222",
"+ c #CCCCCC",
"@ c #CC8822",
"# c #EECC44",
"$ c #EEAA00",
"% c #AA6600",
"& c #884400",
"* c #440000",
"       ..       ...........            ...................             .........       .........       .        .......  .......  ...........           ....... .......   .     .......         ....         .......     .......       ...      ...........            ...      ...........            ................................  ..............   .............   ......    .       .       .       .     ..............      ....            ....                            .....         ........    ..........          .......            .          ..............       .........................     ........        ...........",
"      .+@.      .+++#$$$$$@.          .+$$$$$$@..++##$$$$@.           .+$$$$$$@.      .+$$$$$$@.      .$.       .+++#@.  .+++#@.  .++#$$$$$@.           .+++#@. .+++#%.  .$.    .+++#@.         .+++.       .+#@.++$.    .+++#@.      .@$@.     .+++##$$$$@.          .@$@.     .+++##$$$$@.          .+$$$$$$@..+++###$$$$$$$$%.+++#@.  .+++#@..+++#@.   .+++#@.+++#@.   .+++#@   .$.     .$.     .$.     .$.    .+++#$$$$$$$@.     .#+%.            .%+#.                          .@$$$@.       .++#$$$@.    .+++###$$@.        .++#$$$@.          .$.         .++###$$$$$$@.      .+$$$$$$@..+++###$$$$$$$@.    .++#$$$@.       .++#$$$$$$@.",
"     .$%%@.     .+%%%%%%%%%@.        .$%%%%%%%&..+%%%%%%%%@.         .$%%%%%%%&.     .$%%%%%%%&.     .$%@.      .+%%%&.  .+%%%&.  .$@@%%%&&%.           .+%%%&. .+%%%*. .$%@.   .+%%%&.         .+%%%.     .$%%&.+%%@.   .+%%%&.     .$%%%@.    .+%%%%%%%%%@.        .$%%%@.    .+%%%%%%%%%@.        .$%%%%%%%&..+%%%%%%%%%%%%%&.+%%%&.  .+%%%&..+%%%&.   .+%%%&.+%%%&.   .+%%%&  .#%@.   .#%@.   .#%@.   .#%@.   .+%%%%%%%%%%%.    .#%%&.            .&%%#.                        .#%%%%%@.     .+%%%%%%&.    .+%%%%%%%%@.      .#%%%%%%%@.        .$%@.        .+%%%%%%%%%%&.     .$%%%%%%%&..+%%%%%%%%%%%%%.   .+%%%%%%%@.     .+%%%%%%%%%&.",
"    .$@@@@@.    .#@@@@@@@@@@@.      .$@@@@@@@@*..#@@@@@@@@@@.       .$@@@@@@@@*.    .$@@@@@@@@*.    .$@@@@.     .#@@@*.  .#@@@*.  ...@@@@*...           .#@@@*. .#@@@*..$@@@@.  .#@@@*.         .#@@@@.   .$@@@*.#@@@@.  .#@@@*.    .$@@@@@@.   .#@@@@@@@@@@@.      .$@@@@@@.   .#@@@@@@@@@@@.      .$@@@@@@@@*..#@@@@@@@@@@@@@*.#@@@*.  .#@@@*. .%@@@%. .$@@@%..#@@@*.   .#@@@* .#@@@@. .#@@@@. .#@@@@. .#@@@@.  .#@@@@@@@@@@*.   .#@@@*.            .*@@@#.                      .+@@@@@@@@.   .#@@@@@@@*.    .#@@@@@@@@@@.    .$@@@@@@@@@@.      .$@@@@.       .#@@@@@@@@@@*.    .$@@@@@@@@*..#@@@@@@@@@@@@*.  .#@@@@@@@@@@.   .#@@@@@@@@@@*.",
"   .$$$$$$$@.   .$$$$***&$$$$@.    .$$$$$%*****..$$$$**&$$$$@.     .$$$$$%*****.   .$$$$$%*****.   .$$$$$*.     .$$$$*.  .$$$$*.    .$$$$*.             .$$$$*. .$$$$*.$$$$$*.  .$$$$*.         .$$$$$@. .$$$$$*.$$$$$@. .$$$$*.   .$$$$$$$$@.  .$$$$***&%$$$@.    .$$$$$$$$@.  .$$$$***&%$$$@.    .$$$$$%*****..$&**&%$$$******.$$$$*.  .$$$$*. .&$$$@. .$$$$*..$$$$*.   .$$$$*.$$$$$$@.$$$$$$$.$$$$$$@.$$$$$$%  .$&**&$$$$$*.   .#$$$$*..............*$$$$#.                    .#$$$$$$$$$@. .%$$$%@$$$*.    .$&****&$$$$%.  .$$$$***&$$$$@.    .$$$$$*.       .$$$$&*******.   .$$$$$%*****..$&****&$$$$$*.  .$$$$$&*&$$$$@. .$$$$&**&@$$$*.",
"  .$########@.  .$###*...&####@.  .$####*........$###*..&####@.   .$####*.......  .$####*.......  .$####*.      .$###*.  .$###*.    .$###*.             .$###*. .$###&$####*.   .$###*.         .$####$@.$#####*.$#####@..$###*.  .$####&####@. .$###*....$###&.  .$####&####@. .$###*....$###&.  .@####*.............$###*......$###*.  .$###*.  .@###@.$###@. .$###*. . .$###* .&#####+#####*. .&###########*.  .....@####*.   .############&..&############.                  .$####&&&####@. .&#*.$###*.    .......@####*.   .%@&....&####@.  .$####*.        .$###@........  .$####*..............@####*.  .%$###&...&####@.@###&....$###*.",
" .$++++*&++++@. .$+++*....&+++&. .$++++*.       .$+++*. .&++++@. .$++++*......   .$++++*......   .$++++*. .......$+++*....$+++*.    .$+++*.         .   .$+++*. .$+++@++++&.    .$+++*.         .$+++$++$++$+++*.$++++++@.$+++*. .$++++*.*++++@..$+++*. .$+++*.  .$++++*.*++++@..$+++*. .$+++*.   .%++++@.           .$+++*.    .$+++*.  .$+++*.  .&+++$.#+++*. .$+++*..$..$+++*  .&+++++++++*.   .&+++++++++*.      .$++++*.   .+++++++++++++%..%+++++++++++++.                .$++++*...*++++@  .&..$+++*.         .$++++*.     .&......&+++&. .$++++*......    .%++++@.       .$++++*........     .$++++*.   .%$++&.....&+++& .&+++@. .#+++*.",
".$####*..@####%..$#####+++###&. .$####*.        .$###*.  .@####%.$#######++#$.  .$######++##$.  .$####*.  .+#$@..$#####++#####*.    .$###*.        .$.  .$###*. .$#######%.     .$###*.         .$###&&$$$&$###*.$###&###@$###*..$####*. .@####%.$###&..$###*.  .$####*. .@####%.$###&..$###*.     .%####@.          .$###*.    .$###&.  .$###*.   .@###+###@.  .$###&.##@.$###*   .&#######%.     .&#######&.      .$####*.    %#############&..&#############%                .####*.   .@###%   . .$###*.        .$####*.       . .++#####&. .$####*..+#$%.     .%####@.     .$#######++++#@.    .$####*.     .%#####+++###&.  .&###@..+###*.",
".$$$$*.  .@$$$&..$$$$**&&&%$$%. .&$$$$&.        .$$$$*.  .$$$$$*.&$$$$$@%&&&&.  .$$$$%&&&&&&&.  .&$$$$&.  .+$$%..$$$$%@@@@$$$$*.    .$$$$*.       .$#@. .$$$$*. .$$$$$$$$@.     .$$$$*.         .$$$$*.&$&.$$$$*.$$$$*&$$$$$$$*..&$$$$@. .$$$$$*.$$$$$+++$$*.   .&$$$$@. .$$$$$*.$$$$$+++$$*.       .%$$$$@.         .$$$$*.    .$$$$%.  .$$$$*.   .&$$$$$$$*.  .$$$$%#$$$@$$$$*   .$$$$$$$$@.      .&$$$$$&.      .$$$$$*.     .%$$$$$$$$$$$$*..*$$$$$$$$$$$$%.                .$$$$@.   .$$$$&     .$$$$*.       .$$$$$*.        . .*&&&%$$%. .$$$$%...#$$&...    .%$$$$@.    .$$$$&&%%%$$$$&.   .$$$$$*.      .@$$%**&&&%$$%.   .&$$++++$$$*.",
".$@@@*.  .$@@@*..$@@@*....#@@@%. .&@@@@&.       .$@@@*. .#@@@@*. .&@@@@&......  .$@@@&........   .&@@@@&. .#@@&..$@@@*....$@@@*.    .$@@@*.      .$@@@@..$@@@*. .$@@@&@@@@@.    .$@@@*.         .$@@@*..&..$@@@*.$@@@*.&@@@@@@*. .&@@@@@.#@@@@*..$@@@@@@@@*.     .&@@@@@.#@@@@*..$@@@@@@@@%.         .%@@@@@.        .$@@@*.    .*@@@@@..$@@@@*.    .%@@@@@%.   .$@@@$@@%@@$@@@*  .$@@@@@@@@@@.      .%@@@&.      .#%%%%*.       .%@@@@@@@@@@@*..*@@@@@@@@@@@%.                 .&@@@@@...#@@@@*     .$@@@*.      .#%%%%*.        .$......#@@@%..$@@@$$$#+@@@$$.     .%@@@@@.   .$@@@*...#@@@@*.  .#%%%%*.      .$$@@@.....#@@@%    .&@@@@@@@@*.",
".$%%%*....#%%%*..$%%%&...#%%%%*.  .&%%%%&........$%%%&..#%%%%*.   .&%%%%&........$%%%*.           .&%%%%%..$%%*..$%%%*.  .$%%%*......$%%%*..... .@%%%%%@.$%%%*. .$%%%*&%%%%@.   .$%%%*......... .$%%%*. . .$%%%*.$%%%*..&%%%%%*.  .&%%%%$%%%%*. .$%%%%%%%*.       .&%%%%$%%%%*...$%%%&&%%%%@.   .......&%%%%@.       .$%%%*.     .*%%%%@$%%%%*.     .*%%%%%*.   .$%%%%%&.&%%%%%* .$%%%%%&%%%%%@.     .$%%%*.     .+%%%%*.......   .&%%%%*******..*******%%%%&.  ......           .&%%%%$$$%%%%*. .....$%%%*..... .+%%%%*.......  .$@%....#%%%%*..$%%%%%%%%%%%%*........&%%%%@.  .$%%%&..#%%%%*.  .+%%%%*.       .&$%%%&...#%%%%*     .&%%%%%%%*.",
".$&&&%@$#+#&&&*..$&&&%$$$&&&&*.    .&&&&&%@$+$@..$&&&%$$&&&&*.     .&&&&&%@$+$@..$&&&*.            .&&&&&@$+&&*..$&&&*.  .$&&&*..++#$#&&&%@$$@.  .&&&&&&@$&&&*. .$&&&*.&&&&&@.  .$&&&&%@$#+#$@. .$&&&*.   .$&&&*.$&&&*. .&&&&&*.   .&&&&&&&&*.  .$&&&****.         .&&&&&&&&&%@%.$&&&*.&&&&&@.  .++#$@%&&&&&*.       .$&&&*.      .*&&&&&&&&*.       .&&&&&.    .$&&&&*. .&&&&&*.%&&&&&*.&&&&&&%     .$&&&*.    .+&&&&%@$#+#$@.    .&&&&*..............*&&&&.   .+#$@.            .&&&&&&&&&&*.  .++#$#&&&%@$$@..+&&&&%@$#+#$@. .@&&&%$$$&&&&*. .$&&&&&&&&&&&&*..++#$@%&&&&&*.  .$&&&%$$&&&&*.   .$&&&*.         .&&&&%$$$&&&&*.      .&***&&&*.",
".$%%%&&&&&%%%%*..$%%%%%%%%%%*.      .&%%%%%%%%&..$%%%%%%%%%*.       .&%%%%%%%%&..$%%%*.             .&%%%%%%%%*..$%%%*.  .$%%%*..$%%%%%%%%%%%&.   .&%%%%%%%%%*. .$%%%*..&%%%%@. .$%%%%%%%%%%%&. .$%%%*.   .$%%%*.$%%%*.  .&%%%*.    .&%%%%%*.   .$%%%*...           .&%%%%%%%%%&.$%%%*..&%%%%@. .$%%%%%%%%%*.        .$%%%*.       .*%%%%%%*.        .*%%%*.    .$%%%*.   .&%%%* .&%%%*. .&%%%*.     .$%%%*.    .$%%%%%%%%%%%&.     .@%%*.            .*%%@.    .#%%&.             .&%%%%%%%*.   .$%%%%%%%%%%%&..$%%%%%%%%%%%&.  .&%%%%%%%%%*.  .%&******&%%***..$%%%%%%%%%*.   .$%%%%%%%%%*.    .$%%%*.          .&%%%%%%%%%*.        ...@%%%*.",
".@#$@*....@#$@*..@%%@$##$@%*.        .&%@$#$@%*..@%@@$#$@%*.         .&%@$#$@%*..@#$@*.              .&%@$#$@%*..@#$@*.  .@#$@*..@@@$##+#$@@@*.    .&@@$#+#$@*. .@#$@*. .&@$#$@..@$$##++#$$@@*. .@#$@*.   .@#$@*.@#$@*.   .&$@*.     .&$@%*.    .@#$@*.              .&@$#+#$@@*.@#$@*. .&@$#$@..@@@$##+#@*.         .@#$@*.        .*@#$@*.          .&@&.     .@#$*.     .&$@*  .&$*.   .&@*.      .@#$@*.    .@$$##++#$$@@*.      .@$*.            .*$@.     .$@@*.              .&$@@@%*.    .@@@$##+#$@@@*..@$$##++#$$@@*.   .&@$##$@%*.   .........%$@*....@@@$##+#@*.    .@%@@$#$@%*.     .@#$@*.           .&@$##$@%*.           .@#$@*.",
".%****.  .%****..%*********.          .********..%********.           .********..&****.               .********..%****.  .%****..%************.     .*********. .%****.  .&****&.%************. .%****.   .%****.%****.    .***.      .***.     .%****.               .*********.%****.  .&****&.%********.          .%****.         .****.           .***.     .%**.       .***   .*.     .&.       .%****.    .%************.       .**.            .**.      .@&**.               .*****.     .%************..%************.    .*******.            .&***.  .%********.     .%********.      .%****.            .*******.            .&****.",
".......  ..................            ...................             ................                ................  ......................      .......... .......   ..................... .......   .............     ....       ...      .......                ................   ................           .......          ....             ...      ....         ...    .       .        .......    ...............        ...            ...       ......                .....      ..............................     .......             ......  ..........      ..........       .......             .......             ......."};
